<?xml version="1.0" standalone="no"?>
<!DOCTYPE svg PUBLIC "-//W3C//DTD SVG 20010904//EN"
 "http://www.w3.org/TR/2001/REC-SVG-20010904/DTD/svg10.dtd">
<svg version="1.0" xmlns="http://www.w3.org/2000/svg"
 width="500.000000pt" height="500.000000pt" viewBox="0 0 500.000000 500.000000"
 preserveAspectRatio="xMidYMid meet">
<metadata>
Created by potrace 1.11, written by Peter Selinger 2001-2013
</metadata>
<g transform="translate(0.000000,500.000000) scale(0.100000,-0.100000)"
fill="#000000" stroke="none">
<path d="M0 2500 l0 -2500 2500 0 2500 0 0 2500 0 2500 -2500 0 -2500 0 0
-2500z m2554 1835 c77 -365 70 -344 85 -260 20 111 13 103 84 93 288 -38 593
-169 821 -352 38 -31 73 -56 77 -56 4 0 86 51 181 113 95 62 179 117 187 122
18 10 24 21 -116 -193 -62 -95 -113 -177 -113 -181 0 -4 25 -39 56 -77 183
-228 314 -533 352 -821 10 -71 18 -64 -93 -84 -84 -15 -105 -8 260 -85 151
-32 275 -61 275 -64 0 -3 -124 -32 -275 -64 -365 -77 -344 -70 -260 -85 111
-20 103 -13 93 -84 -38 -288 -169 -593 -352 -821 -31 -38 -56 -73 -56 -77 0
-4 51 -86 113 -181 140 -214 134 -203 116 -193 -8 5 -92 60 -187 122 -95 62
-177 113 -181 113 -4 0 -39 -25 -77 -56 -228 -183 -533 -314 -821 -352 -71
-10 -64 -18 -84 93 -15 84 -8 105 -85 -260 -32 -151 -61 -275 -64 -275 -3 0
-32 124 -64 275 -77 365 -70 344 -85 260 -20 -111 -13 -103 -84 -94 -281 37
-596 172 -821 353 -38 31 -73 56 -77 56 -4 0 -86 -51 -181 -113 -95 -62 -179
-117 -187 -122 -18 -10 -24 -21 116 193 62 95 113 177 113 181 0 4 -25 39 -56
77 -183 228 -314 533 -352 821 -10 71 -18 64 93 84 84 15 105 8 -260 85 -151
32 -275 61 -275 64 0 3 124 32 275 64 365 77 344 70 260 85 -111 20 -103 13
-93 84 38 288 169 593 352 821 31 38 56 73 56 77 0 4 -51 86 -113 181 -140
214 -134 203 -116 193 8 -5 92 -60 187 -122 95 -62 177 -113 181 -113 4 0 39
25 77 56 228 183 533 314 821 352 71 10 64 18 84 -93 15 -84 8 -105 85 260 32
151 61 275 64 275 3 0 32 -124 64 -275z"/>
<path d="M2185 3965 c-533 -112 -955 -489 -1125 -1004 -37 -113 -79 -315 -68
-327 3 -3 177 31 386 75 208 45 381 81 384 81 3 0 61 -86 128 -190 68 -105
124 -189 126 -187 3 3 334 1558 334 1570 0 12 -51 6 -165 -18z m-408 -482 c98
-64 179 -117 180 -118 2 -1 6 -49 9 -107 7 -105 7 -106 -17 -113 -46 -15 -135
-77 -201 -143 -42 -41 -71 -63 -77 -57 -19 21 -291 435 -291 443 0 11 200 212
211 212 4 0 88 -53 186 -117z"/>
<path d="M2630 3983 c0 -4 36 -177 80 -384 44 -207 80 -378 80 -381 0 -3 -86
-61 -190 -128 -105 -67 -189 -124 -188 -126 8 -8 1571 -335 1576 -330 11 12
-31 214 -68 327 -172 521 -608 905 -1145 1009 -113 21 -145 24 -145 13z m878
-497 c62 -63 91 -99 86 -108 -65 -111 -237 -358 -249 -358 -8 0 -20 12 -26 28
-37 99 -110 211 -197 304 l-43 46 152 101 c111 72 157 97 168 91 9 -4 58 -51
109 -104z"/>
<path d="M2960 2564 c0 -3 -75 -357 -166 -786 -91 -429 -163 -783 -160 -786
12 -11 214 31 327 68 458 151 808 501 959 959 37 113 79 315 68 327 -3 3 -177
-31 -386 -75 -208 -45 -381 -81 -384 -81 -3 0 -60 86 -128 190 -113 176 -130
200 -130 184z m619 -937 l23 -38 -93 -95 c-52 -53 -101 -100 -111 -105 -12 -7
-59 20 -197 111 l-181 119 0 40 c0 22 -2 46 -5 54 -4 10 10 20 45 35 74 31
176 102 239 166 l55 55 101 -152 c56 -84 111 -169 124 -190z"/>
<path d="M990 2331 c0 -49 44 -240 76 -333 156 -447 503 -789 953 -938 113
-37 315 -79 327 -68 3 3 -31 177 -75 386 -45 208 -81 381 -81 384 0 3 86 61
190 128 105 68 189 124 188 126 -4 3 -1560 334 -1571 334 -4 0 -7 -9 -7 -19z
m875 -413 c37 -71 107 -161 156 -200 l39 -31 -230 -154 c-126 -84 -234 -153
-238 -153 -15 0 -213 203 -210 215 2 6 55 91 118 187 130 199 107 183 261 186
l77 2 27 -52z"/>
</g>
</svg>
